<?xml version="1.0" encoding="UTF-8"?>
<!DOCTYPE svg PUBLIC "-//W3C//DTD SVG 1.1//EN" "http://www.w3.org/Graphics/SVG/1.1/DTD/svg11.dtd">
<!-- Creator: CorelDRAW 2019 (64 Bit Sem fins comerciais) -->
<svg xmlns="http://www.w3.org/2000/svg" xml:space="preserve" width="285mm" height="70mm" version="1.1" style="shape-rendering:geometricPrecision; text-rendering:geometricPrecision; image-rendering:optimizeQuality; fill-rule:evenodd; clip-rule:evenodd"
viewBox="0 0 28498.94 6999.74"
 xmlns:xlink="http://www.w3.org/1999/xlink"
 xmlns:xodm="http://www.corel.com/coreldraw/odm/2003">
 <defs>
  <style type="text/css">
   <![CDATA[
    .fil0 {fill:#FEFEFE}
    .fil1 {fill:#FEFEFE;fill-rule:nonzero}
   ]]>
  </style>
 </defs>
 <g id="Camada_x0020_1">
  <metadata id="CorelCorpID_0Corel-Layer"/>
  <g id="_2087624294816">
   <path class="fil0" d="M11810.54 3729.85l189.01 -13.3 -171.17 -82.79c-383.18,-186.12 -765.87,-372.28 -1149,-558.16 0,0.09 -0.23,0.43 -0.23,0.65 33.9,-328.74 -273.22,-478.28 -703.27,-513.85 -127.15,-9.39 -254.71,-13.89 -382.95,-14.22l0.43 0c-828.41,-402.44 -1657.32,-804.9 -2485.72,-1207.16 27.97,7.27 57.26,11.31 87.47,11.53 38.76,-0.34 77.34,-5.03 111.07,-16.79 9.64,-3.79 20.26,-8.16 30.63,-13.73 43.8,33.65 103.55,40.24 157.04,41.94 44.96,-0.12 88.57,-6.96 126.3,-21.28 11.4,-4.68 23.77,-10.62 35.67,-18.1 41.67,24.81 94.32,30.2 142.96,31.99 46.71,-0.13 92.81,-7.39 132.67,-25.28 19.84,-8.72 40.76,-22.14 56.42,-41.27 56.59,33.66 124.47,47.09 186.39,47.98 44.95,-0.34 87.48,-7.48 123.81,-26.06 18.07,-8.5 36.33,-22.72 49.56,-41.17 68.12,41.73 156.25,53.81 245.48,54.57 170.27,-2.21 345.88,-45.85 429.16,-125.03l85.95 -86.48 -128.23 0c-595.12,2.22 -1216.62,-463.43 -1794.58,-708.83l-2.84 -1.45 -2.43 -0.68c-176.27,-51.55 -332.9,-82.54 -464.64,-82.66 -114.59,0.12 -213.09,23.5 -285.83,84.45 -72.91,61.65 -109.92,158.28 -109.25,278.75 0,62.43 9.04,132.12 27.54,210.4 2.85,27.74 5.52,54.94 7.04,81.66l-339.85 -165.32 -0.33 -66.77 118.77 -118.14 -178.03 -176.85c73.29,-45.06 114.78,-127.07 115.02,-206.92 -0.42,-131.43 -100.47,-240.93 -228.7,-241.49 -128.01,0.56 -228.03,110.07 -228.26,241.49 0.23,87.59 52.68,176.73 127.46,210.52l-174.38 173.25 126.48 125.62 0.88 58.51c-86.81,0.43 -173.29,7.27 -259.11,19.34 13.67,-65.53 21.82,-125.71 21.82,-179.29 0.66,-120.72 -36.47,-217.22 -109.29,-278.87 -72.7,-61.08 -171.42,-84.45 -285.89,-84.45 -131.85,0 -288.06,30.98 -464.54,82.78l-2.64 0.89 -2.55 1.02c-578.01,245.53 -1199.57,711.18 -1794.88,708.93l-127.79 0 85.48 86.48c83.5,79.18 259.1,122.82 429.31,125.27 89.34,-0.79 177.36,-13.21 245.54,-54.47 13.23,18.11 31.3,32.21 49.47,41.05 36.47,18.45 79.11,25.5 123.72,25.62 62.35,-0.55 130.12,-14.1 186.61,-47.89 15.65,19.03 36.58,32.68 56.42,41.3 39.75,17.9 85.92,25.25 132.42,25.25 48.69,-1.66 101.58,-7.01 143.21,-31.96 11.78,7.82 24.34,13.3 35.7,18.23 37.56,14.32 81.29,21.04 126.25,21.13 7.05,-0.09 14.54,-1.02 21.57,-1.24 -329.82,254.03 -648.86,600.45 -956.42,1037.71 -5.52,-0.12 -10.8,-0.12 -16.2,-0.12 -690.16,0 -1240.54,145.53 -1729.35,352.02l0.1 0c-42.29,-10.2 -89.13,-18.24 -140.67,-23.84 -458.72,-15.64 -632.68,156.93 -636.64,414.44 0,-0.25 0,-0.25 0,-0.56 -221.64,124.82 -438.67,253.02 -660.54,374.72l-10.15 5.37 -6.38 9.51c-38.34,53.12 -76.57,106.83 -114.8,160.28l-33.82 47.31 51.13 27.41c279.59,148.08 559.19,296.3 838.78,444.4 97.94,146.08 293.59,287.35 533.41,430.07 236.3,90.95 474.91,168.45 717.27,232.44 1189.12,629.98 2378.22,1259.82 3567.44,1890.05 6.93,149.97 109.95,270.02 236.08,270.02 130.66,0 237.29,-128.64 237.29,-286.24 0,-72.59 -23.17,-138.49 -60.6,-189.06 724.19,-519.44 1471.33,-1002.22 2656.29,-1084.75 66.55,19.89 128.66,30.52 185.91,30.52 178.94,3.69 306.27,-115 347.28,-308.39 235.95,-332.44 500.12,-606.94 794.01,-823.82 0,0 -0.42,-0.1 -0.42,-0.21 242.38,29.65 510.31,-51.57 572.86,-278.74 -3.76,-45.09 -7.29,-88.6 -10.81,-132.23 2.01,26.39 4.19,53.15 6.38,80.22 346.36,-155.05 725.1,-247.99 1138.25,-277.19zm-10983.11 300.1l0 0c-226.39,-120.01 -452.76,-239.93 -679.15,-359.85 24.67,-34.55 49.46,-69.13 74.14,-103.81 5.29,-2.77 10.46,-5.92 15.66,-8.71l-22.04 44.75 613.94 312.07c0.54,-2.58 0.54,-4.8 1.21,-7.14 -10.57,41.36 -11.01,82.1 -3.75,122.69zm38.24 -210.73l0 0 -573.85 -291.72c182.32,-101.7 360.89,-205.8 541.12,-307.62 6.39,43.64 16.42,89.28 30.19,136.15 83.5,208.81 43.85,354.91 2.54,463.18zm9216.6 -1159.07l0 0c11.23,-26.06 99.36,-10.08 196.78,35.57 97.17,45.64 166.56,103.47 155.34,129.56 -11.47,25.93 -99.85,9.94 -197.02,-35.69 -97.36,-45.43 -166.75,-103.36 -155.1,-129.44zm18.99 281.01l0 0c83.47,0 133.93,38.46 133.93,85.55 0,47.09 -59.25,88.6 -142.78,88.6 -47.13,-41.82 -120.95,-71.47 -150.49,-1.57 -83.71,118.56 -127.08,-4.6 -85.22,-90.05 0,-47.21 161.04,-82.53 244.57,-82.53zm-731.72 -389.63l0 0c0.43,0 1.09,0 1.52,0 -891.68,32.24 -1816.6,271.92 -2822.38,662.1 -59.94,18.91 -119.2,37.15 -178.03,54.91 -44.52,-109.73 -115.01,-202.9 -190.59,-292.28 118.54,-82.44 230.44,-180.42 307.6,-312.41 85.05,-143.17 120.3,-296.75 120.3,-441.05 -2.19,-243.74 -97.43,-465.32 -237.72,-575.93 128.42,-65.69 241.9,-186.37 329.37,-391.96 23.6,11.51 47.62,23.15 71.4,34.67 19.17,13.98 40.94,28.18 67.4,42.5 33.06,30.09 73.82,41.98 113.24,45.3 805.97,391.41 1611.94,782.9 2417.91,1174.16zm-3774.42 897.78l0 0c21.58,-67.92 73.36,-128.21 145.19,-185.91l3.31 179.07c-35.26,8.75 -71.61,18.81 -106.33,27.53l-42.18 -20.69zm247.19 -32.44l0 0 -4.07 -224.48c12.02,-8.08 24.12,-16.24 36.79,-24.31l36.04 20.05c6.59,3.58 12.44,7.61 18.94,11.3l1.32 194.51c-30.18,8.07 -59.26,15.09 -89.02,22.93zm188.29 -50.68l0 0 -0.55 -95.96c28.51,24.6 51.62,50.23 71.28,75.81 -23.6,6.72 -47.32,13.68 -70.73,20.15zm172.81 -49l0 0c-40.52,-62.98 -97.72,-122.26 -174.27,-174.6 -0.79,-0.56 -1.52,-1.33 -2.55,-1.88 1.03,-0.81 1.64,-1.49 2.55,-2.25 33.49,-26.73 62.6,-53.8 92.32,-75.85 63.22,76.61 117.02,152.25 152.43,234.56 -23.78,7.18 -46.7,13.21 -70.48,20.02zm290.19 -2834.75l0 0c46.04,-39.4 120.29,-61.2 221.89,-60.86 115.85,-0.34 264.16,27.96 433.76,77.73 505.47,211.53 1062,619.57 1636.87,701.24 -60.42,14.87 -129.39,24.81 -193.02,23.83 -105.55,1.11 -196.77,-26.64 -228.5,-68.58l-5.94 -7.61 -8.61 -4.46c-263.27,-144.64 -497.28,-263 -758.35,-406.62l-47.81 89.07c237.73,131.19 475.26,262.18 712.74,393.38 -1.09,0.8 -2.43,1.48 -3.52,2.24 -16.08,8.38 -45.62,15.22 -78.86,14.88 -65.21,0.89 -141.69,-25.63 -172.51,-63.53l-1.08 -3.36 -2.92 -1.58 -3.7 -4.24 -8.86 -5.02c-207.99,-109.51 -360.67,-193.3 -569.34,-303.15 0,-0.21 -0.42,-0.21 -0.61,-0.55 0,0 0,0 -0.23,0l-46.29 89.58c170.75,91.53 361.34,194.74 534.52,287.38 -17.17,11.18 -61.03,24.61 -104.46,23.38 -29.72,0 -59.69,-4.93 -79.77,-12.88 -8.79,-3.23 -14.98,-6.8 -19.35,-9.95 -0.24,-2 -0.91,-3.9 -1.09,-5.6l-5.27 -20.44 -17.9 -10.63c-99.12,-58.73 -198.47,-117.45 -297.41,-176.3 -48.95,-30.21 -100.27,-61.28 -158.62,-93.96l-49.13 87.93c52.83,31.53 106.16,62.97 159.04,94.51 76.92,47.89 149.39,95.09 236.2,145.74 -20.5,5.37 -46.7,9.61 -71.64,8.72 -53.08,1.91 -95.18,-17.21 -106.15,-29.2l1.09 -10.06 -7.94 -5.79 -1.76 -3.95 -12.99 -8.93c-114.58,-76.95 -188.16,-124.93 -301.89,-201.79l-56.36 83.67c80.86,57.07 160.14,107.17 238.38,160.4 -15.64,2.81 -33.72,5.03 -51.13,4.47 -28.21,0 -55.99,-4.24 -73.58,-10.62 -8.86,-3.14 -14.8,-6.93 -16.98,-8.72l-0.25 -0.34 -3.28 -13.09 -11.88 -10.62c-60.36,-53.93 -93.67,-79.76 -143.88,-123.15 -8.13,-7.27 -16.08,-14.23 -24.45,-21.59 -2.25,-1.91 -4.43,-3.91 -6.85,-5.94l0 0.12c0,-0.34 -0.19,-0.34 -0.19,-0.34l-65.69 76.15c0.25,0.25 0.25,0.25 0.42,0.25l0 0.22c0.91,0.68 1.76,1.45 2.67,2.34 11.65,10.63 22.69,20.14 33.06,28.86 40.52,35.48 81.05,71.05 121.39,106.61 -0.43,0.22 -1.34,0.56 -2.19,0.77 -7.95,3.14 -20.25,5.05 -33.3,5.05 -27.54,0.56 -56.17,-10.29 -66.3,-22.26l-5.28 -5.36 -6.61 -3.7c-29.73,-17.33 -51.33,-31.1 -68.06,-43.08 -0.25,-0.09 -0.67,-0.31 -0.91,-0.43 -47.13,-34.24 -53.99,-55.71 -79.53,-108.19l-52.65 -115.3 -39.67 120.48c-3.95,10.83 -7.53,20.91 -11.47,31.07 -8.13,22.82 -16.5,44.41 -24.69,65.11 -100.45,245.53 -220.98,344.07 -360.86,389.83 -11.28,-3.35 -22.26,-6.5 -33.97,-8.4l-13.89 -2.22 -12.98 5.82c-12.31,5.91 -38.58,14.88 -67.4,31.87l-87.59 14.54 -4.97 -52.01 75.76 -7.49 4.25 -0.59 3.69 -0.89c239.3,-61.4 326.78,-237.8 339.76,-429.27 0.24,0 0.24,0 0.24,0.21 0.42,-3.92 0.18,-7.73 0.42,-11.64 0.67,-13.99 0.91,-27.97 0.91,-41.95 0,-5.35 0.67,-10.62 0.67,-15.98 0,-13.98 -1.15,-28.43 -1.82,-42.54l-0.18 -0.3c-1.76,-47.55 -5.1,-95.99 -10.13,-144.63l-0.42 -3.92 -1.16 -2.8c-17.59,-73.73 -25.29,-136.91 -25.29,-190.04 0.67,-102.03 27.96,-161.73 73.58,-200.99zm-321.25 1676.28l0 0c61.26,-3.24 102.21,-44.54 132.42,-113.09 21.59,35.91 34.82,88.69 34.58,150.89 0.91,119.46 -49.99,258.28 -133.76,325.17 -61.87,54.91 -115.19,117.89 -179.12,165.09l-3.95 -660.41c30.89,67.11 73.29,127.96 149.83,132.34zm-151.58 -402.94l0 0 -0.12 -22.82 7.4 -1.2c-2.97,7.36 -4.86,15.86 -7.28,24.02zm337.32 -666.54l0 0c-7.28,189.7 -54.4,317.1 -263.5,378.3l-75.33 7.72 -3.58 -552.24c114.16,55.37 228.25,110.74 342.41,166.22zm-331.37 1717l0 0c0.23,-0.12 0.23,-0.12 0.42,-0.22 108.64,-58.85 179.12,-153.35 241.96,-206.39 115.2,-95.52 169.18,-257.94 170.08,-403.11 -0.66,-116.68 -35.3,-232.1 -133.32,-284.58l-54 -27.75 -16.49 58.98c-14.13,50.2 -29.97,82.32 -43.01,98.43 -13.41,16.53 -18.68,15.55 -20.02,15.76 -1.76,0.34 -9.89,-1.35 -22.69,-14.32 -11.22,-11.64 -24.26,-30.98 -35.18,-55.15 -7.34,-44.08 -10.31,-81.55 -10.31,-113.18 0.72,-92.42 23.66,-131.78 46.58,-155.39 3.76,-3.91 7.47,-6.93 11.71,-10.07l59.69 -9.73c10.8,-2.56 21.6,-5.36 32.39,-8.16 123.57,56.26 256.47,275.95 253.8,531.43 0,127.65 -30.81,262.19 -106.4,389.26 -84.62,146.97 -229.17,252.57 -380.21,347.55 -29.39,18.45 -58.8,36.68 -88.43,54.58 -8.27,5.05 -16.75,10.19 -25.24,15.21 -186.51,115.23 -370.47,224.27 -417.84,423.28 -2.97,18.35 -5.29,36.12 -7.06,54.01 -12.11,2.71 -23.89,5.26 -35.69,8.07 0.88,-7.82 1.54,-15.68 2.65,-23.63 4.4,-34.33 11.24,-68.54 19.82,-102.55 38.34,-152.45 113.7,-295.07 195.32,-370.37l55.98 -52.45 -69.85 -31.11c-139.57,-62.41 -201.5,-144.63 -291.83,-244.84 -103.56,-147.2 -142.55,-299.67 -142.65,-440.96 0,-150.3 45.27,-288.03 105.42,-385.68 58.94,-98.97 136.38,-150.64 172.73,-147.41 9.16,0 16.09,1.91 23.37,5.81l10.36 6.16 11.89 0.56c15.19,-0.22 33.05,14.88 49.57,56.27 15.21,39.26 21.82,92.94 21.82,127.62 0,10.07 -0.67,18.47 -1.21,23.84 -0.33,1.11 -0.33,2.12 -0.33,2.88l-2.22 3.83 -1.53 8.83c-5.06,29.54 -18.73,60.86 -34.82,81.64 -15.97,21.72 -32.16,28.3 -35.26,27.32 -2.31,-0.55 -5.61,0.56 -17.07,-11.85 -10.68,-12.53 -25,-38.84 -37.13,-81.68l-15.4 -53.8 -51.13 20.82c-46.06,24.27 -62.59,61.85 -88.36,117.77 -22.48,55.62 -40.1,127.1 -40.32,205.49 -0.56,112.06 38.45,240.72 153.24,339.15 149.36,161.94 199.28,162.53 334.79,252.68l12.12 7.85 13.66 0.43c6.6,0.12 13.88,0.33 21.37,0.33 3.3,0 6.17,-0.33 9.25,-0.55 34.59,-0.67 66.55,-5.26 96.07,-12.53 0.21,0 0.21,0 0.21,0 36.14,-9.17 68.97,-22.36 98.71,-38.37zm-62.02 578.73l0 0c-9.15,2.37 -17.96,4.71 -27.1,7.3 9.14,-2.59 17.95,-5.05 27.1,-7.3zm-281.48 -1636.88l0 0c-9.01,-23.93 -22.24,-49.12 -40.3,-70.37l67.63 9.72 19.18 1014.98c-73.27,-42.71 -113.36,-64.3 -218.35,-177.16l-1.75 -2.03 -2.55 -2.13c-91.33,-78.41 -119.53,-172.7 -119.97,-263.85 0,-62.76 14.54,-122.6 32.62,-166.57 0.98,-2.43 1.75,-4.67 2.74,-6.68 27.98,47.85 65.56,76.16 114.24,77.6 98.83,-8.16 147.39,-99.99 167.02,-187.44 8.14,-21.93 6.82,-37.38 7.93,-61.99 0,-46.2 -7.28,-107.48 -28.44,-164.07zm110.52 -897.32l0 0 56.29 56.05 65.65 -65.23 11.46 1897.54c-29.3,9.83 -61.24,15.99 -97.16,16.78l-36.24 -1905.14zm-80.65 -609.29l0 0c0.33,-79.08 60.27,-140.26 128.78,-140.39 68.86,0.13 128.91,61.32 129.14,140.39 -0.23,60.86 -36.04,110.75 -83.86,130.77 -1.86,0.89 -4.08,1.1 -6.28,2l-30.84 -30.52 -34.59 34.12c-5.07,-1.23 -10.36,-2.47 -14.77,-4.5 -49.68,-18.66 -87.25,-69.69 -87.58,-131.87zm136.93 235.13l0 0 149.38 148.64 -149.38 148.31 -149.38 -148.31 149.38 -148.64zm-427.22 455.91l0 0c90.55,-13.98 181.56,-21.59 273.22,-22.14l9.91 524.72 -24.24 -2.03c-216.36,-63.54 -258.89,-198.07 -263.51,-399.33 0,-32.55 1.98,-66.55 4.62,-101.23zm-1139.52 296.19l0 0c-25.34,0.13 -51.36,-3.57 -71.84,-8.84 87.26,-50.77 159.95,-98.2 237.08,-146.3 52.76,-31.19 105.76,-62.42 158.61,-93.96l-49.12 -88.01c-59.94,33.32 -111.93,64.98 -161.72,95.74 -98.06,58.17 -196.19,116.44 -294.36,174.61l-16.64 9.82 -5.83 18.23c-0.88,2.8 -1.54,5.83 -2.2,8.62 -4.42,3.03 -10.59,6.72 -19.17,9.74 -20.05,7.82 -50.02,12.87 -79.98,12.87 -34.82,0.22 -70.29,-6.71 -91.89,-16.78 -4.83,-1.91 -9.02,-4.25 -12.11,-6.38 173.27,-92.94 363.53,-195.85 534.29,-287.35l-46.27 -89.61c-0.21,0 -0.21,0 -0.21,0 -0.34,0.21 -0.46,0.21 -0.67,0.46 -208.65,109.84 -361.12,193.82 -569.21,303.12l-9.15 4.8 -3.75 5.05 -1.98 1.02 -0.88 2.33c-29.87,38.38 -107.3,65.66 -173.62,64.65 -33.05,0.24 -62.78,-6.47 -78.77,-14.88 -1.21,-0.76 -2.3,-1.57 -3.41,-2.21 237.5,-131.14 475.24,-262.22 712.64,-393.42l-47.36 -89.03c-0.12,0 -0.12,0 -0.12,0 -6.82,3.67 -13.54,7.61 -20.26,11.17 -253.16,138.58 -481.87,254.38 -738.21,395.3l-8.5 4.59 -6.15 7.61c-31.51,41.94 -123.18,69.69 -228.59,68.58 -64.01,0.89 -132.76,-8.74 -193.45,-23.83 575.16,-81.43 1131.49,-489.38 1636.92,-700.99 170.1,-50.02 318.38,-78.32 434.14,-78.11 102.04,-0.21 175.94,21.59 221.9,60.76 45.49,39.49 73.13,99.11 73.57,201.34 0,52.79 -8.04,115.99 -25.65,189.91l-0.46 3.49 -0.34 2.89c-7.03,63.54 -11.99,126.64 -11.99,188.03 -4.63,216.68 73.37,429.53 341.51,498.45l4.63 1.11 4.39 0.43 31.52 2.37 1.98 48.42 -132.53 -19.35c-175.49,-42.28 -325.54,-147.97 -443.74,-499.55l-19.5 -59.38 0.23 -0.12 -20.05 -61.07 -0.33 0.42 -0.11 -0.42 -52.88 115.33c-34.59,71.02 -34.26,85.34 -147.96,151.66l-6.61 3.58 -5.17 5.48c-10.36,11.86 -38.99,22.82 -66.76,22.39 -14.33,0.21 -27.77,-2.92 -35.93,-5.95 40.55,-35.57 81.1,-71.13 121.86,-106.83 9.91,-8.59 20.94,-17.98 32.83,-28.85 0.88,-0.68 1.76,-1.45 2.87,-2.35l-0.23 0c0.23,0 0.23,-0.12 0.23,-0.21l-15.66 -18.36c0.23,-0.12 0.23,-0.12 0.23,-0.12l-49.57 -57.93c0,0.1 -0.11,0.1 -0.23,0.22l-0.21 -0.22c-12.24,10.84 -24.69,21.81 -37.02,32.64 -46.94,40.63 -80.21,66.68 -138.58,118.48l-11.89 10.62 -3.1 13.43c-2.2,1.91 -9.69,6.93 -24.23,10.74 -17.41,5.15 -41.65,8.26 -66.1,8.26 -17.85,0.13 -35.48,-1.53 -51.34,-4.25 77.99,-52.78 157.09,-102.68 236.84,-159.27 0.12,-0.21 0.46,-0.21 0.46,-0.43l1.08 -0.58 -8.58 -12.85c0,0.1 -0.22,0.1 -0.22,0.22l-47.6 -71.04c-113.92,76.64 -187.5,124.5 -301.95,201.79l-13.12 8.63 -1.55 4.24 -8.04 5.7 1.11 10.2c-11.13,11.73 -53.43,31.07 -106.3,29.28zm221.41 80.66l0 0c24.9,5.36 50.79,9.06 77.56,9.06 36.81,0 73.6,-4.81 106.76,-16.54 0.34,0 0.55,0 0.99,-0.34 8.92,9.95 19.16,17.67 29.53,22.82 26.88,14.41 56.84,20.02 87.69,20.14 44.73,-0.34 93.42,-11.86 131.54,-46.54 61.91,-33.35 101.56,-65.78 129.77,-99.13 94.76,235.37 222.76,363.54 366.64,427.65 -74.81,26.05 -141.01,93.83 -197.64,183.11 -69.62,114.07 -120.08,268.22 -120.31,439.22 0,161.31 45.84,337.49 163.7,503.13l1.89 2.81 1.86 1.9c74.48,81.98 142.66,170.48 264.62,239.59 -74.7,90.61 -135.94,213.99 -171.64,347.55l-1933.37 -938.6c343.71,-483.76 697.11,-847.76 1060.43,-1095.85zm-2762.79 1461.08l0 0c453.98,-180.21 961.94,-303.15 1590.32,-303.15 2.98,0 5.95,0 8.81,0l2015.23 978.3c-5.07,30.55 -8.37,61.07 -10.36,91.84 -1406.67,308.38 -2438.26,263.33 -3389.06,78.87 -207.77,-89.84 -192.12,-160.29 -144.64,-293.74 127.02,-277.73 104.98,-456.5 -70.4,-552.12l0.11 0zm-118.88 45.86l0 0c56.41,29.66 163.05,173.5 151.37,213.99 0.66,91.59 -199.5,235.12 -268.36,154.22 -72.05,-29.84 -97.62,-178.52 -1.77,-266.87 -112.92,-104.71 -62.14,-195.09 118.76,-101.35zm-153.55 495.73l0 0c58.82,23.62 96.72,68.81 84.61,100.93 -12.35,32.09 -69.85,39.13 -128.68,15.64 -58.83,-23.71 -96.73,-68.89 -84.61,-101.01 12.22,-32.22 69.62,-39.26 128.68,-15.56zm-390.2 -360.27l0 0c-27.98,42.93 -64.69,68.13 -81.77,56.26 -17.17,-11.76 -8.25,-56.26 19.85,-99.35 27.98,-42.83 64.55,-67.99 81.73,-56.26 17.08,11.76 8.27,56.26 -19.81,99.35zm55.95 47.52l0 0c11.78,-40.59 67.2,-49.21 123.61,-19.56 56.63,29.63 93.08,86.79 81.3,127.29 -11.67,40.62 -66.86,49.55 -123.6,19.8 -56.64,-29.88 -92.99,-86.91 -81.31,-127.53zm355.72 1502.13l0 0c-138.46,-80.32 -150.37,-116.23 -15.09,-182.09 -185.5,-75.64 -134.61,-129.66 8.48,-119.71 -236.29,-72.8 -334.67,-154.25 -338.54,-241.28 140.37,65.44 270.46,118.35 328.3,84.47 -278.06,-125.61 -371.14,-235.24 -320.58,-275.61 111.49,24.6 202.48,75.85 314.2,100.46 -89.25,-74.84 -280.28,-183.57 39.42,-122.26 -155.53,-158.16 -94.29,-189.74 65.44,-163.89 1052.07,488.15 2605.05,384.35 4385.63,11.85 1011.74,-296.32 1346.22,-678.38 3355.35,-925.95 430.98,-16.76 619.81,31.1 642.92,122.84 26.03,52.11 -28.39,87.34 -153.1,108.38 -206.66,-82.45 -380.93,-129.63 -329.61,69.35 301.17,-34.1 247.84,82.1 215.45,219.69 -168.08,6.93 -242.82,10.84 -274.72,157.82 178.21,-0.55 295.47,103.26 338.17,195.85 -216.12,-75.26 -258.22,-10.62 -126.9,194.2 37.91,27.4 75.82,54.61 113.68,81.98 -1603.99,-46.97 -2673.88,565.89 -3967.39,848.89 -1447.24,337.24 -2935.33,381.87 -4281.09,-164.98zm8276.69 -306.14l0 0c-331.99,245.06 -599.92,542.14 -806.82,887.66 -0.91,-0.09 -1.33,-0.44 -2.19,-0.64l-1566.31 -760.42c779.09,-233.98 1529.92,-360.61 2290.09,-335.33 -5.52,82.87 27.97,152.77 85.23,208.73zm-3566.66 505.12l0 0c4.61,-1.36 9.71,-2.81 14.56,-4.25 -0.91,0.33 -1.58,0.56 -2.43,0.89 29.97,-3.91 51.57,-12.32 67.89,-18.23 -6.61,74.72 -28.03,208.61 -127.4,328.52 -35.11,50.45 -72.66,96.31 -110.82,140.49 -0.42,-0.43 -0.85,-1.11 -1.52,-1.66l-0.49 -111.09c111.99,-130.66 137.27,-258.62 160.2,-334.68zm-161.46 156.16l0 0 -0.67 -112.78c16.37,-4.25 32.57,-8.37 49.13,-12.84 -11.89,39.35 -25.66,81.42 -48.46,125.62zm-98.49 167.21l0 0c-22.71,-26.64 -46.07,-53.36 -69.75,-80.19l-2.87 -156.71c23.9,-5.95 47.92,-11.52 72.16,-17.68 -0.21,0 -0.65,0.34 -1.09,0.34l1.55 254.24zm-171.42 -195.51l0 0c-4.18,-4.71 -8.38,-9.74 -12.56,-14.57 3.96,-0.77 8.15,-1.88 12.33,-2.78l0.23 17.35zm-92.77 799.87l0 0 -0.88 2.67 -0.88 2.6c-18.73,64.3 -27.76,129.06 -27.76,193.05 0,192.4 83.07,374.38 229.59,499.99l13.2 14.87c-0.21,13.89 0,25.19 -0.65,32.34 -13.01,-0.13 -39.88,-5.14 -80.21,-19.46 -31.72,-14.66 -60.37,-37.49 -85.93,-66l-4.74 -2.25c-92.64,-104.67 -143.31,-285.78 -142.32,-449.42 -0.11,-100.24 18.74,-192.16 48.81,-247.66 37.02,-70.8 92.97,-144.85 154.66,-220.8l1.55 82.88c-41.21,55.37 -77.56,112.99 -104.45,177.19zm107.96 6.37l0 0 7.72 407.73c-28.64,-67.69 -45.39,-140.27 -45.51,-215.78 0,-53.47 7.61,-107.61 22.81,-161.73 4.19,-10.41 10.15,-20.14 14.98,-30.22zm94.64 -266.56l0 0c22.46,28.77 44.07,58.05 64.24,87.71l4.62 776.5 -9.04 13.21 -44.29 -50.1 -15.53 -827.32zm-342.17 172.82l0 0c-41.53,78.66 -60.26,183.22 -60.47,295.76 0.87,119.45 22.24,249.87 71.16,362.64l-2298.9 -1168.58c-0.21,0 -0.33,0 -0.65,0 679.7,57.06 1402.61,11.21 2197.99,-149.41 107.08,127.27 217.02,238.69 316.39,349.09 -84.18,101.44 -169.21,205.25 -225.51,310.51zm182.97 1081.22l0 0c-1065.82,-564.88 -2131.67,-1129.41 -3197.7,-1694.08 146.62,29.2 295.01,53.59 445.17,72.71 0,0 -0.34,0 -0.46,0l2692.85 1368.67c30.95,31.32 66.32,57.62 106.75,77.63l2.53 1.36 2.32 0.77c20.82,7.27 39,12.66 55.85,16.78 -50.01,34.46 -88.35,89.61 -107.31,156.16zm223.86 243.62l0 0c-69.52,0 -126.14,-68.46 -126.14,-152.12 0,-83.68 56.62,-151.91 126.14,-151.91 7.82,0 15.64,1.14 23.13,2.8 4.19,1.01 8.26,2.46 12.34,4.03 2.87,1.02 5.51,1.79 8.37,3.24 5.3,2.33 10.59,5.27 15.66,8.62 0.88,0.55 1.63,1.11 2.43,1.66 5.82,3.92 11.22,8.41 16.26,13.21 28.87,27.96 48.04,70.37 48.04,118.36 0,83.67 -56.81,152.12 -126.23,152.12zm217.45 -711.64l0 0c-16.99,64.76 -37.67,128.33 -61.93,188.03 0.48,-0.43 0.91,-0.68 1.21,-1.11 -9.1,22.6 -18.38,44.75 -28.51,66.21 -23.72,7.18 -40.09,9.73 -50.89,10.29l0.18 0c-1.52,0 -3.82,0.46 -5.28,0.55 -3.95,-0.09 -6.68,-0.55 -8.13,-0.77 -1.86,-7.26 -2.18,-33.22 -3.06,-64.64 112.68,-174.18 151.55,-390.4 151.79,-570.02 0,-57.07 -4.18,-110.52 -11.28,-158.28l-1.1 -6.29 -2.18 -5.48c-122.96,-298.09 -360.44,-498.19 -576.13,-745.17 28.08,-7.95 55.07,-16.11 83.49,-23.59 42.97,49.55 83.5,95.31 122.74,139.59l0 1.11c35.24,39.6 69.18,78.43 101.78,116.68l0 -1.14c23.14,27.2 45.62,54.39 67.76,81.67l0 0.9c34.7,43.17 67.99,87.58 100.36,133.9l0 -1.11c49.37,70.13 96.69,144.95 142.96,231.85 20.51,54.26 31.54,131.66 31.3,219.82 0.24,117.55 -19.16,254.24 -53.98,386.24 -0.19,0.12 -0.86,0.34 -1.1,0.77zm-117.19 -515.88l0 0c1.09,2.58 2.6,4.8 3.51,7.6 5.95,40.5 9.23,87.03 9.23,136.82 0,49.09 -3.65,101.33 -10.98,154.22l-1.76 -298.65zm2774.57 -292.37l0 0c-7.52,-2.25 -13.89,-3.15 -21.59,-5.39l-8.8 -2.8 -9.04 0.58c-1135.16,76.29 -1883.38,516.65 -2570.99,1000.32 15.64,-42.16 29.96,-85.12 42.27,-129.1 700,-586.8 1593.86,-954.89 2468.55,-954.59 47.81,0 95.43,2.8 142.98,5.05 -14.5,28.52 -29.3,56.82 -43.38,85.93zm-99.61 -191.94l0 0c-860.61,0.21 -1731.55,343.82 -2431.3,896.97 18.26,-97.78 28.39,-194.62 28.39,-283.78 -0.18,-98.67 -11.65,-187.6 -39.61,-260.19l-1.33 -3.02 -1.09 -2.46c-54.91,-103.01 -111.08,-190.16 -169.49,-270.91 43.01,-49.8 86.2,-102.37 127.63,-160.86 80.38,-97.07 117.2,-204.58 134.19,-288.37 8.37,-41.83 12.31,-78.19 14.31,-104.68 0.67,-11.42 1.34,-20.6 1.76,-27.75 114.77,-33.44 230.44,-68.67 348.12,-106.27 175.37,-63.96 348.31,-122.81 520.21,-177.06l1632.14 792.5c-54.42,-2.8 -109.08,-4.12 -163.91,-4.12zm243.67 215.31l0 0c-12.98,0 -27.72,-2.37 -41.85,-3.91 15.89,-32.33 67.64,-116.13 84.62,-147.66 73.58,13.98 119.86,29.32 157.1,58.52 -42.53,49.21 -121.45,90.94 -199.87,93.06zm260.22 -257.29l0 0 -6.19 8.41 -2.18 10.07c-3.33,14.53 -7.52,26.95 -11.21,39.91 -32.64,-16.41 -80.2,-34.89 -144.79,-56.15 203.81,-333.88 466.45,-620.11 792.74,-856.03 37.24,21.37 78.44,38.92 122.96,52.57 -277.4,216.58 -528.16,483.57 -751.32,801.22zm1213.59 -1595.4l0 0 14.08 65.79 -148.73 33.35c-1.1,40.58 -1.94,81.3 -3.09,121.79l152.49 -33.99 13.64 65.66 -167.66 37.68c-1.08,48.11 -2.67,96.22 -3.76,144.31l172.09 -38.59 14.07 65.75 -187.67 41.95c-1.76,69.69 -3.34,139.38 -5.1,209.07 -214.12,-5.58 -402.53,-41.73 -500.37,-186.56 85.05,-208.85 115.5,-409.18 65.21,-597.77 9.53,-156.83 58,-194.06 145.03,-112.1 103.97,2.47 207.75,5.05 311.73,7.39l-0.85 32.43 157.95 -35.23 14.07 65.66 -173.6 38.71c-0.85,35.01 -1.75,69.69 -2.61,104.71l133.09 -30zm56.6 -333.54l0 0c-5.7,13.42 -51.32,5.26 -101.37,-18.36 -50.22,-23.5 -86.37,-53.34 -80.62,-66.76 6.13,-13.31 51.57,-5.27 101.8,18.22 50.22,23.59 86.13,53.59 80.19,66.9zm23.36 -147.88l0 0c-8.14,18.36 -70.5,7.17 -139.46,-25.16 -68.54,-32.33 -117.85,-73.18 -109.97,-91.62 8.37,-18.35 70.54,-7.05 139.5,25.17 68.73,32.2 117.87,73.26 109.93,91.61zm146.96 865.66l0 0c-16.56,-200.88 -32.81,-390.95 -49.13,-599.31 19.59,-43.76 33.49,-84.26 44.53,-123.53 234.38,113.89 469.07,227.85 703.27,341.74 -255.8,53.71 -492.43,122.94 -712.99,205.93 2.62,34.34 5.47,68.67 8.56,103.26 258.47,-99.01 542.05,-178.52 853.59,-236.82 36.76,18.02 73.82,35.91 110.59,53.81 -342.18,40.06 -661.43,125.61 -958.41,254.92zm-4184.69 212.64l0 0 523.72 -157.83 163.05 110.07 225.41 -67.99 -594.46 -509.18 -250.52 58.95 -436 844.19 254.88 -63.56 113.92 -214.64zm215.7 -465.53l0 0 197.2 180.85 -344.36 89.84 147.15 -270.69zm-3731.45 868.79l0 0 -371.26 -518.8 -231.33 -19 473.81 684.74 256.33 5.28 490.23 -598.53 -246.54 4.46 -371.25 441.84zm1746.31 160.37l0 0 0.88 -447.07 433.62 337.91 126.9 -23.36 392.19 -415.67 12.34 397.57 200.93 -51.37 -11 -676.39 -201.27 41.73 -465.88 530.89 -402.55 -353.26 -260.65 16.44 0.12 663.76 174.37 -21.16zm3008.33 -1321.69l0 0 697.14 338.6 200.48 -17.56 -29.3 -699.32 -159.71 32.21 18.92 507.84 -690.47 -347.55 -191.49 48.99 -7.95 691.17 155.1 -30.98 7.28 -523.4zm-3636.9 700.34l0 0 -163.7 10.16 0 631.33 171.29 1.02 -7.59 -642.51z"/>
   <g>
    <path class="fil1" d="M16011.01 904.67l-1077.92 0 -677.82 2113.47 -677.81 -2113.47 -1077.92 0 1157.94 3139.61 1195.61 0 1157.94 -3139.61zm1205.01 3139.61l0 -3139.61 -950.82 0 0 3139.61 950.82 0zm4236.36 0l0 -3139.61 -1256.78 0 -607.21 1656.89 -593.09 -1656.89 -1270.92 0 0 3139.61 950.83 0 0 -1887.53 701.35 1887.53 423.63 0 715.47 -1887.53 0 1887.53 936.71 0zm3765.67 0l-1157.94 -3139.61 -1195.6 0 -1157.95 3139.61 1077.93 0 150.62 -494.24 1049.67 0 155.33 494.24 1077.92 0zm-1430.95 -1148.53l-649.58 0 324.79 -1059.09 324.79 1059.09zm4711.79 1148.53l0 -3139.61 -950.83 0 0 1694.55 -1087.34 -1694.55 -983.78 0 0 3139.61 950.83 0 0 -1783.97 1160.3 1783.97 910.83 0z"/>
    <path class="fil1" d="M14919.86 5806.74l-222.54 -133.53c-33.55,58.06 -77.41,104.18 -131.6,138.36 -54.19,34.19 -116.11,51.29 -185.77,51.29 -56.77,0 -110.31,-10.33 -160.62,-30.97 -50.31,-20.64 -94.18,-50.64 -131.59,-89.99 -37.42,-39.35 -66.77,-86.76 -88.06,-142.23 -21.29,-55.47 -31.93,-118.05 -31.93,-187.7 0,-69.67 10.64,-132.57 31.93,-188.68 21.29,-56.12 50.64,-103.54 88.06,-142.23 37.41,-38.71 81.28,-68.7 131.59,-89.99 50.32,-21.29 103.86,-31.93 160.62,-31.93 69.67,0 131.27,17.09 184.8,51.28 53.54,34.19 97.09,80.32 130.63,138.36l222.54 -135.45c-24.51,-38.71 -53.54,-75.48 -87.08,-110.31 -33.55,-34.84 -72.25,-65.16 -116.12,-90.96 -43.86,-25.8 -93.53,-46.45 -149,-61.93 -55.48,-15.48 -117.41,-23.22 -185.77,-23.22 -98.06,0 -189.32,17.09 -273.83,51.28 -84.51,34.19 -158.03,81.61 -220.61,142.23 -62.57,60.64 -111.92,132.89 -148.03,216.74 -36.13,83.86 -54.19,175.45 -54.19,274.8 0,99.34 18.06,190.61 54.19,273.82 36.12,83.22 85.47,155.13 148.03,215.77 62.58,60.64 136.1,108.05 220.61,142.23 84.51,34.19 175.77,51.28 273.83,51.28 68.37,0 130.63,-7.74 186.74,-23.22 56.12,-15.48 106.11,-36.12 149.97,-61.93 43.86,-25.8 82.57,-56.44 116.11,-91.92 33.55,-35.48 62.58,-72.57 87.09,-111.28zm1418.48 -394.77c0,-96.77 -17.09,-186.75 -51.28,-269.96 -34.19,-83.22 -81.93,-155.78 -143.2,-217.71 -61.28,-61.92 -133.53,-110.3 -216.73,-145.13 -83.22,-34.83 -173.2,-52.25 -269.96,-52.25 -96.76,0 -186.74,17.42 -269.96,52.25 -83.21,34.84 -155.13,83.22 -215.77,145.13 -60.63,61.93 -108.05,134.49 -142.23,217.71 -34.19,83.21 -51.28,173.19 -51.28,269.96 0,96.76 17.09,186.74 51.28,269.95 34.19,83.22 81.61,155.46 142.23,216.74 60.64,61.28 132.57,109.34 215.77,144.16 83.22,34.84 173.2,52.25 269.96,52.25 96.76,0 186.74,-17.41 269.96,-52.25 83.21,-34.83 155.45,-82.89 216.73,-144.16 61.28,-61.28 109.02,-133.53 143.2,-216.74 34.19,-83.21 51.28,-173.19 51.28,-269.95zm-286.4 0c0,61.92 -9.03,120.3 -27.1,175.12 -18.06,54.84 -43.86,102.57 -77.4,143.2 -33.55,40.64 -74.83,72.9 -123.86,96.76 -49.03,23.87 -104.5,35.81 -166.42,35.81 -61.93,0 -117.41,-11.94 -166.42,-35.81 -49.03,-23.86 -90.31,-56.12 -123.86,-96.76 -33.54,-40.64 -59.34,-88.37 -77.41,-143.2 -18.06,-54.83 -27.09,-113.21 -27.09,-175.12 0,-61.93 9.03,-120.63 27.09,-176.1 18.07,-55.48 43.87,-103.54 77.41,-144.17 33.55,-40.64 74.83,-72.89 123.86,-96.76 49.02,-23.87 104.5,-35.8 166.42,-35.8 61.93,0 117.4,11.93 166.42,35.8 49.03,23.87 90.31,56.12 123.86,96.76 33.54,40.64 59.34,88.7 77.4,144.17 18.07,55.48 27.1,114.18 27.1,176.1zm1648.76 644.41l0 -1290.76 -280.6 0 0 839.87 -594.09 -839.87 -288.35 0 0 1290.76 276.73 0 0 -878.57 623.13 878.57 263.18 0zm1135.95 -1062.41l0 -228.35 -971.45 0 0 228.35 344.46 0 0 1062.41 280.6 0 0 -1062.41 346.4 0zm1236.56 1062.41l-512.82 -1290.76 -327.04 0 -510.88 1290.76 321.24 0 92.89 -263.18 518.62 0 94.83 263.18 323.17 0zm-489.59 -472.18l-373.49 0 187.7 -524.43 185.78 524.43zm1695.21 112.25c0,-85.16 -21.61,-153.85 -64.83,-206.1 -43.22,-52.25 -98.38,-85.47 -165.45,-99.66 59.34,-18.06 108.37,-50.64 147.06,-97.73 38.71,-47.09 58.06,-109.34 58.06,-186.74 0,-46.45 -8.71,-90.31 -26.13,-131.6 -17.41,-41.28 -42.57,-77.41 -75.47,-108.37 -32.9,-30.97 -73.22,-55.48 -120.95,-73.54 -47.74,-18.06 -101.28,-27.1 -160.62,-27.1l-671.51 0 0 1290.76 698.6 0c58.05,0 110.63,-9.03 157.71,-27.09 47.09,-18.07 87.08,-43.22 119.98,-75.48 32.9,-32.25 58.38,-70.31 76.45,-114.18 18.06,-43.86 27.09,-91.6 27.09,-143.19zm-311.56 -555.4c0,47.74 -15.16,85.47 -45.16,113.21 -30.32,27.74 -66.77,41.61 -109.02,41.61l-333.5 0 0 -311.56 333.5 0c42.25,0 78.7,13.87 109.02,41.6 30,27.74 45.16,66.13 45.16,115.15zm29.02 526.37c-1.29,54.18 -18.06,96.11 -50.31,125.79 -32.26,29.67 -69.03,44.51 -110.31,44.51l-356.08 1.93 0 -336.72 356.08 0c41.28,0 78.38,13.87 111.28,41.61 32.89,27.74 48.7,68.7 47.41,122.89l1.93 0zm764.39 388.97l0 -1290.76 -280.6 0 0 1290.76 280.6 0zm1062.41 0l0 -228.35 -545.72 0 0 -1062.41 -280.6 0 0 1290.76 826.32 0zm437.34 0l0 -1290.76 -280.6 0 0 1290.76 280.6 0zm1437.84 -644.41c0,-96.77 -17.1,-184.81 -51.28,-264.16 -34.19,-79.34 -81.61,-147.39 -142.24,-204.15 -60.63,-56.77 -132.56,-100.64 -215.76,-131.6 -83.22,-30.96 -173.84,-46.45 -271.9,-46.45l-520.56 0 0 1290.76 520.56 0c98.06,0 188.68,-15.48 271.9,-46.45 83.21,-30.96 155.13,-74.83 215.76,-131.59 60.64,-56.77 108.06,-124.5 142.24,-203.19 34.18,-78.7 51.28,-166.42 51.28,-263.18zm-286.41 0c0,56.76 -9.35,110.63 -28.06,161.58 -18.7,50.96 -45.15,95.15 -79.99,132.56 -34.83,37.42 -76.12,67.09 -124.5,89.02 -48.06,21.94 -101.92,32.9 -160.94,32.9l-241.25 0 0 -834.06 241.25 0c60.32,0 115.15,10.65 163.84,31.93 49.03,21.29 90.32,50.97 124.51,89.03 34.18,38.06 59.99,82.57 78.05,133.53 18.06,50.96 27.09,105.47 27.09,163.52zm1639.09 644.41l-512.82 -1290.76 -327.04 0 -510.88 1290.76 321.24 0 92.89 -263.18 518.62 0 94.83 263.18 323.17 0zm-489.59 -472.18l-373.49 0 187.7 -524.43 185.78 524.43zm1817.12 -172.22c0,-96.77 -17.1,-184.81 -51.28,-264.16 -34.19,-79.34 -81.61,-147.39 -142.24,-204.15 -60.63,-56.77 -132.56,-100.64 -215.76,-131.6 -83.22,-30.96 -173.84,-46.45 -271.9,-46.45l-520.56 0 0 1290.76 520.56 0c98.06,0 188.68,-15.48 271.9,-46.45 83.21,-30.96 155.13,-74.83 215.76,-131.59 60.64,-56.77 108.06,-124.5 142.24,-203.19 34.18,-78.7 51.28,-166.42 51.28,-263.18zm-286.41 0c0,56.76 -9.35,110.63 -28.06,161.58 -18.7,50.96 -45.15,95.15 -79.99,132.56 -34.83,37.42 -76.12,67.09 -124.5,89.02 -48.06,21.94 -101.92,32.9 -160.94,32.9l-241.25 0 0 -834.06 241.25 0c60.32,0 115.15,10.65 163.84,31.93 49.03,21.29 90.32,50.97 124.51,89.03 34.18,38.06 59.99,82.57 78.05,133.53 18.06,50.96 27.09,105.47 27.09,163.52zm1406.88 644.41l0 -228.35 -646.36 0 0 -319.3 632.82 0 0 -218.68 -632.82 0 0 -296.08 646.36 0 0 -228.35 -926.96 0 0 1290.76 926.96 0z"/>
   </g>
  </g>
 </g>
</svg>
