<svg xmlns="http://www.w3.org/2000/svg" id="Camada_1" data-name="Camada 1" viewBox="0 0 104.66 104.68"><defs><style>      .cls-1 {        fill: #074371;      }      .cls-1, .cls-2 {        stroke-width: 0px;      }      .cls-2 {        fill: #fff;      }    </style></defs><polygon class="cls-1" points="102.13 58.54 103.66 61.91 101.08 64.46 102.27 68.29 99.04 70.75 99.69 74.32 96.52 76.2 96.72 80.25 93.03 81.81 92.75 85.38 89.15 86.4 88.33 90.43 84.47 91.02 83.31 94.39 79.48 94.48 77.67 98.19 73.87 97.8 71.91 100.77 68.12 99.89 65.45 103.04 61.91 101.74 59.27 104.14 55.76 102.33 52.41 104.68 49.35 102.56 46.15 104.26 43.17 101.62 39.4 103.04 36.96 100.26 33.39 101.11 31.15 97.8 27.21 98.22 25.54 94.93 21.8 94.88 20.49 91.11 16.61 90.57 15.82 86.94 12.16 85.92 11.79 81.98 8.22 80.5 8.36 76.76 5.02 74.86 5.67 71.01 2.58 68.68 3.66 65.08 .91 62.39 2.47 58.82 .06 55.84 2.01 52.58 0 49.29 2.38 46.23 .82 42.77 3.54 40.08 2.41 36.37 5.47 34.04 4.79 30.27 8.11 28.35 7.94 24.49 11.45 22.99 11.76 19.19 15.48 18.14 16.24 14.34 20.04 13.75 21.26 10.18 25.11 10.09 26.84 6.58 30.64 6.94 32.71 3.8 36.48 4.68 39.03 1.7 42.6 3 45.38 .48 48.84 2.27 52.07 0 55.19 2.13 58.48 .4 61.43 3.03 65.14 1.62 67.58 4.42 71.18 3.54 73.42 6.86 77.36 6.43 79 9.72 82.74 9.78 84.08 13.58 87.99 14.14 88.78 17.69 92.38 18.65 92.75 22.73 96.38 24.24 96.24 27.81 99.52 29.68 98.87 33.76 101.96 36.09 100.94 39.49 103.72 42.18 102.05 45.95 104.43 48.9 102.59 51.96 104.66 55.3 102.13 58.54"></polygon><path class="cls-2" d="M52.33,7.31c24.89,0,45.04,20.15,45.04,45.04s-20.15,45.04-45.04,45.04S7.29,77.22,7.29,52.36,27.44,7.31,52.33,7.31h0ZM52.33,16.95h0c-19.53,0-35.4,15.87-35.4,35.4s15.87,35.38,35.4,35.38,35.4-15.87,35.4-35.38-15.87-35.4-35.4-35.4h0Z"></path><path class="cls-1" d="M10.03,45.13l.65-2.64.34.06-.09.31c-.03.2-.06.31-.03.4.03.09.06.11.11.14.09,0,.17,0,.34-.03l3.6-.54-2.52-1.81c-.17-.11-.34-.2-.51-.23-.14-.03-.28-.03-.37.06-.11.06-.17.2-.23.37l-.06.26-.34-.09.51-2.1.34.09-.03.14c-.03.14-.03.28.06.4.06.14.2.28.4.43l4.11,2.98-.09.43-5.27.82c-.2.03-.31.09-.4.14-.06.09-.11.2-.17.4l-.03.11-.34-.09Z"></path><path class="cls-1" d="M11.82,38.44l1.02-2.66.31.11-.17.48c-.03.11-.06.2-.03.26.03.06.09.11.14.14l4.05,1.53c.09.06.17.06.23,0,.06-.03.14-.11.17-.23l.17-.43.34.11-1.02,2.66-.34-.11.17-.43c.03-.14.06-.23.03-.31-.03-.09-.09-.14-.17-.17l-4-1.53c-.09-.03-.17-.03-.23,0-.09.06-.14.11-.17.23l-.17.48-.34-.14Z"></path><path class="cls-1" d="M13.27,34.47l1.11-1.96,3.91.74-2.66-2.95,1.13-2.01.31.17-.26.45c-.06.11-.09.2-.06.26,0,.06.06.11.17.17l3.69,2.1c.11.06.2.06.26.03.09-.03.14-.11.23-.23l.2-.37.31.17-1.39,2.47-.31-.17.28-.48c.03-.09.06-.14.03-.23-.03-.06-.09-.14-.17-.17l-3.97-2.24,3.69,4.11-.17.28-5.44-1.05,3.54,2.01c.2.11.4.14.6.09.23-.06.4-.2.57-.43l.31.17-1.02,1.79-.31-.17c.11-.23.11-.45.06-.65-.06-.23-.2-.37-.43-.51l-3.15-1.76c-.14-.09-.23-.11-.31-.09-.06.03-.14.11-.2.23l-.23.4-.31-.17Z"></path><path class="cls-1" d="M19.39,24.8l5.19,1.56c.14.06.26.06.34.06.09-.03.17-.09.26-.17l.11-.17.28.23-1.67,2.01-.28-.23.17-.17c.11-.17.2-.28.2-.37.03-.09,0-.14-.06-.2-.03-.03-.11-.06-.17-.09l-1.08-.31-1.33,1.59.23.45c.11.2.2.34.28.4.11.09.26.14.4.11.17-.03.31-.14.45-.28l.11-.14.26.23-1.33,1.62-.28-.23.09-.09c.09-.11.11-.23.11-.37,0-.17-.03-.37-.14-.54l-2.38-4.59.26-.31ZM20.1,26.16h0l1.08,2.04,1.13-1.36-2.21-.68Z"></path><path class="cls-1" d="M22.08,21.94l1.3-1.13,4.79.91-1.7-1.98c-.17-.17-.37-.28-.57-.31-.23-.03-.43.06-.65.23l-.23-.28,1.53-1.33.23.28c-.17.2-.28.4-.28.57,0,.2.09.4.28.6l2.83,3.29-.34.28-5.47-1.08,2.01,2.32c.23.26.45.4.68.4.23.03.43-.06.6-.2l.06-.06.26.26-1.7,1.47-.23-.26.11-.11c.17-.14.26-.34.23-.57,0-.23-.09-.45-.26-.65l-2.35-2.72c-.28-.06-.51,0-.71.17l-.2.17-.23-.26Z"></path><path class="cls-1" d="M34.02,14.09l-.03-.62.26-.14,1.13,1.93-.31.17c-.4-.51-.79-.85-1.19-.96-.43-.14-.79-.11-1.13.06-.37.2-.6.54-.65,1.02-.06.48.11,1.11.54,1.87.43.82.88,1.33,1.36,1.59.37.2.77.2,1.19-.03.43-.23.68-.57.82-1.02.09-.34.06-.77-.11-1.22l.31-.17c.23.6.26,1.16.06,1.67-.17.51-.54.91-1.05,1.19-.68.34-1.36.43-2.07.17-.71-.23-1.28-.71-1.67-1.45-.43-.82-.51-1.62-.26-2.41.23-.65.65-1.13,1.25-1.45.23-.14.48-.23.71-.26.26-.03.54,0,.85.06h0Z"></path><path class="cls-1" d="M38.78,11.59c.51-.17.99-.2,1.5-.11.51.11.94.34,1.3.68.37.34.65.77.82,1.28.26.79.23,1.56-.11,2.24-.34.71-.91,1.19-1.67,1.45-.51.17-.99.2-1.5.09-.48-.11-.91-.31-1.28-.65-.37-.34-.62-.77-.82-1.3-.26-.79-.23-1.56.11-2.24.34-.71.91-1.16,1.64-1.42h0ZM38.92,11.93h0c-.28.09-.51.26-.65.48-.17.23-.26.51-.26.91s.09.88.28,1.5c.23.62.43,1.11.65,1.39.23.28.48.48.74.57.28.09.54.06.85-.03.43-.14.71-.43.82-.88.14-.45.06-1.13-.26-2.04-.2-.62-.4-1.11-.62-1.36-.23-.28-.45-.48-.74-.57-.26-.09-.54-.09-.82.03h0Z"></path><path class="cls-1" d="M43.11,10.43l1.7-.26,3.54,3.34-.37-2.58c-.03-.23-.14-.43-.31-.57-.17-.11-.37-.17-.65-.17l-.06-.34,2.01-.28.06.34c-.26.06-.45.17-.57.34-.09.14-.11.37-.09.62l.62,4.31-.43.06-4.03-3.83.43,3c.06.34.17.6.37.71.17.14.37.2.62.17l.09-.03.06.34-2.24.34-.06-.34.17-.03c.23-.03.4-.14.51-.34s.17-.43.11-.71l-.51-3.54c-.2-.2-.43-.28-.68-.26l-.26.06-.06-.37Z"></path><path class="cls-1" d="M50.51,9.52l4.88.06.09,2.13h-.34c-.06-.45-.17-.82-.28-1.08-.14-.26-.28-.43-.43-.54-.17-.11-.34-.17-.54-.17-.11,0-.2.03-.26.06-.06.06-.09.11-.09.23l-.06,4.31c-.03.09,0,.14.06.2.06.06.11.09.2.09h.62v.34l-2.98-.03v-.37l.6.03c.09,0,.17-.03.23-.09.06-.06.09-.11.09-.2l.06-4.28c0-.11-.03-.2-.09-.23-.06-.06-.11-.09-.26-.09-.62,0-1.08.57-1.3,1.73h-.34l.14-2.1Z"></path><path class="cls-1" d="M59.67,10.03l1.22,5.27c.06.14.09.26.17.31.06.06.14.11.26.11l.2.06-.06.34-2.58-.43.06-.37.26.06c.17.03.31.03.4,0,.09-.03.11-.09.14-.14,0-.06,0-.14-.03-.2l-.26-1.11-2.04-.34-.28.43c-.11.2-.17.34-.2.43-.03.17,0,.31.11.43.11.11.26.2.45.23l.2.03-.06.34-2.1-.34.06-.34h.11c.14.03.26,0,.37-.06.17-.09.31-.23.43-.4l2.75-4.37.43.06ZM58.85,11.34h0l-1.25,1.93,1.76.31-.51-2.24Z"></path><path class="cls-1" d="M63.52,10.94l3.2,1.08c.48.17.85.43,1.05.77.2.31.26.65.11,1.02-.09.31-.28.54-.6.68-.31.11-.71.17-1.19.14.57.31.94.62,1.11.94.17.31.2.65.09.99-.09.31-.28.54-.54.71-.17.11-.45.17-.79.17-.37.03-.77-.06-1.22-.2l-3-1.02.11-.34.48.17c.09.03.14.03.2,0,.09-.06.14-.11.17-.23l1.39-4.08c.03-.06,0-.11-.03-.17-.03-.06-.11-.11-.26-.14l-.4-.14.11-.34ZM64.49,14.29h0l-.65,1.93c-.03.11-.03.2,0,.26,0,.06.06.11.14.14l.68.23c.34.11.62.11.88,0s.45-.37.57-.71c.11-.37.11-.71-.03-.96-.14-.26-.4-.45-.79-.6l-.79-.28ZM64.6,13.97h0l.6.2c.4.14.74.14.96.03.23-.11.43-.37.54-.74.11-.37.11-.62,0-.82-.11-.2-.43-.4-.88-.54-.23-.09-.37-.11-.45-.09-.09,0-.14.06-.17.17l-.6,1.79Z"></path><path class="cls-1" d="M69.76,13.24l2.58,1.25-.14.31-.48-.23c-.09-.06-.17-.06-.23-.06-.09.03-.14.09-.17.14l-1.9,3.88c-.03.09-.03.17,0,.23.03.09.11.14.23.2l.4.2-.14.34-2.58-1.28.17-.31.4.2c.11.06.23.09.31.09.09-.03.14-.09.17-.17l1.87-3.83c.06-.11.06-.2.03-.26-.03-.06-.09-.14-.2-.2l-.45-.2.14-.31Z"></path><path class="cls-1" d="M73.3,15.36l.17-.31,2.41,1.56-.2.28-.4-.26c-.11-.06-.2-.11-.28-.09-.09,0-.14.06-.2.17l-2.27,3.49c-.09.14-.11.23-.11.31.03.06.11.14.28.26l.68.43c.26.17.57.2.94.11.37-.11.79-.37,1.25-.82l.28.17-1.28,1.73-4.11-2.66.17-.28.43.26c.09.06.17.09.26.06.06,0,.14-.06.2-.14l2.3-3.57c.06-.09.09-.17.06-.23-.03-.09-.09-.14-.2-.23l-.37-.23Z"></path><path class="cls-1" d="M78.63,18.54l2.18,1.84-.23.26-.4-.31c-.09-.09-.17-.11-.23-.11s-.11.03-.17.11l-2.78,3.32c-.06.06-.09.14-.09.2.03.09.09.17.2.26l.34.28-.23.28-2.18-1.84.23-.26.34.28c.11.09.2.14.28.14s.14-.03.2-.11l2.75-3.29c.06-.06.09-.14.09-.23-.03-.06-.09-.14-.17-.23l-.37-.31.23-.28Z"></path><path class="cls-1" d="M81.84,21.2l2.01,2.21c.37.4.62.82.74,1.28.09.48.09.94-.09,1.39-.14.45-.43.88-.82,1.25-.4.37-.82.62-1.28.74s-.91.11-1.36-.03c-.48-.17-.88-.4-1.22-.77l-2.1-2.3.26-.23.31.34c.09.09.17.11.26.11s.17-.03.26-.11l3.06-2.83c.09-.09.14-.14.14-.23s-.06-.17-.17-.28l-.26-.31.26-.23ZM79.85,26.76h0c.23.26.48.43.79.48.31.09.62.09.91-.06.31-.11.71-.37,1.16-.79.48-.45.82-.85.96-1.19.17-.34.23-.65.2-.94-.06-.28-.26-.6-.57-.94-.17-.17-.28-.28-.37-.31-.06,0-.14.03-.23.11l-3.12,2.83c-.09.09-.14.17-.14.26s.03.14.11.23l.28.31Z"></path><path class="cls-1" d="M88.38,29.03l-3.03,4.48c-.09.14-.14.23-.14.31,0,.11.03.2.09.28l.11.17-.28.2-1.45-2.18.31-.2.11.2c.11.17.2.26.28.31.09.03.14.03.2,0,.06-.03.09-.09.14-.14l.62-.94-1.13-1.76-.51.11c-.2.03-.37.09-.43.11-.14.11-.23.23-.26.4,0,.14.03.31.14.48l.11.14-.28.2-1.16-1.76.28-.2.06.09c.09.11.17.2.31.23.17.06.37.09.57.06l5.1-.96.23.37ZM86.88,29.28h0l-2.27.43.96,1.47,1.3-1.9Z"></path><path class="cls-1" d="M90.34,32.43l1.19,2.75c.23.51.31.99.26,1.45-.03.48-.2.91-.51,1.3-.28.37-.68.68-1.16.91-.51.2-.99.31-1.47.28-.45-.03-.88-.2-1.28-.48-.4-.28-.68-.65-.88-1.11l-1.25-2.83.31-.14.2.43c.03.09.09.17.17.2.09,0,.17,0,.28-.03l3.83-1.7c.11-.06.17-.11.2-.17.03-.09,0-.2-.06-.31l-.17-.4.34-.14ZM86.66,37.05h0c.14.31.34.57.6.74.28.17.57.26.91.23.31,0,.77-.14,1.33-.4.62-.26,1.05-.54,1.3-.79.28-.28.43-.54.48-.82.03-.28-.03-.62-.23-1.05-.11-.26-.2-.37-.26-.43-.06-.03-.14-.03-.26,0l-3.86,1.7c-.11.06-.2.11-.23.2-.03.06,0,.14.03.26l.17.37Z"></path><path class="cls-1" d="M93.15,39.23l1.19,4.71-1.84.6-.09-.34c.43-.17.71-.37.88-.51.17-.17.28-.37.34-.57.06-.2.03-.45-.03-.77l-.2-.74c-.03-.11-.09-.2-.14-.23-.06-.03-.11-.06-.2-.03l-1.87.48.06.26c.09.28.23.48.43.6s.51.14.88.09l.09.34-2.52.62-.09-.34c.43-.11.68-.28.82-.48.11-.2.14-.48.06-.79l-.06-.2-1.98.51c-.09,0-.14.06-.17.11-.03.09-.03.2,0,.34l.17.65c.11.45.34.79.71.99.34.23.82.28,1.42.2l.09.34-2.07.43-1.25-4.9.34-.09.11.48c.03.11.09.2.14.23.09.06.17.06.26.03l4.17-1.05c.09,0,.14-.06.17-.11.03-.09.03-.2-.03-.34l-.11-.43.34-.09Z"></path><path class="cls-1" d="M16.61,63.84l1.79,4.51-1.93.91-.11-.31c.4-.26.68-.48.88-.68.17-.23.28-.43.34-.62.03-.17,0-.37-.06-.57-.06-.09-.09-.17-.17-.2-.06-.03-.11-.03-.2,0l-4.03,1.59c-.06.03-.11.09-.14.14-.06.09-.06.14-.03.2l.26.6-.34.14-1.11-2.78.34-.14.23.57c.03.09.09.14.14.17s.14.03.23,0l4-1.56c.09-.06.14-.11.17-.17.03-.06,0-.14-.03-.26-.23-.6-.94-.79-2.13-.57l-.11-.31,2.01-.65Z"></path><path class="cls-1" d="M18.37,68.34l1.45,2.55c.23.4.37.77.4,1.08.06.34,0,.6-.09.82-.11.23-.28.43-.51.54-.37.2-.74.2-1.13,0-.31-.14-.62-.45-.96-.94.09.28.14.51.11.71,0,.2-.06.4-.2.6-.14.26-.37.54-.65.82-.17.17-.28.28-.31.37-.03.06-.03.14,0,.17.09.17.31.14.71-.06l.17.28c-.43.23-.77.28-1.02.23-.28-.06-.48-.23-.65-.51-.11-.23-.17-.4-.17-.6.03-.17.09-.34.23-.48.06-.09.26-.28.57-.54.37-.31.6-.54.71-.68.09-.14.14-.28.17-.43,0-.14-.03-.28-.11-.45l-.2-.34-1.81.99c-.06.06-.11.11-.14.17,0,.11,0,.2.06.28l.26.43-.31.2-1.39-2.47.31-.17.23.37c.06.11.11.17.2.2.09,0,.17,0,.26-.06l3.66-2.07c.09-.06.17-.11.17-.2.03-.06.03-.14-.03-.23l-.23-.43.28-.17ZM17.15,71.32h0l.23.4c.2.37.45.6.77.71.23.09.51.03.85-.17.31-.17.51-.37.57-.62.06-.23-.03-.54-.26-.91-.11-.23-.2-.34-.28-.37-.09-.03-.2,0-.34.09l-1.53.88Z"></path><path class="cls-1" d="M22.88,75.2l-2.69,4.71c-.09.11-.11.23-.11.31s.03.17.11.28l.11.14-.28.23-1.59-2.07.28-.23.14.2c.11.14.23.26.28.28.09.03.17.03.23-.03.03-.03.09-.09.11-.14l.57-.96-1.28-1.67-.51.14c-.2.06-.34.11-.43.17-.11.09-.2.23-.2.37,0,.17.06.34.2.48l.09.14-.26.23-1.3-1.67.28-.23.06.11c.09.09.2.17.34.2.17.03.37.03.57-.03l4.99-1.3.28.34ZM21.37,75.57h0l-2.24.6,1.11,1.39,1.13-1.98Z"></path><path class="cls-1" d="M24.07,77.05l2.15,2.1c.4.4.65.82.79,1.25.11.45.11.94,0,1.39-.14.48-.4.91-.77,1.28-.4.4-.79.68-1.25.82-.43.14-.91.14-1.36.03-.48-.11-.91-.34-1.25-.68l-2.21-2.18.23-.26.34.34c.09.06.17.11.26.11.09-.03.17-.06.23-.14l2.95-3c.09-.09.11-.14.11-.23-.03-.09-.06-.17-.17-.28l-.28-.28.23-.26ZM22.37,82.71h0c.26.23.54.37.85.45.31.06.62.03.91-.11s.65-.43,1.11-.88c.45-.48.77-.88.91-1.25.17-.34.2-.65.14-.94-.09-.26-.28-.57-.6-.88-.2-.17-.31-.28-.4-.28-.09-.03-.14,0-.23.09l-2.95,3.03c-.09.09-.14.17-.14.23,0,.09.03.17.11.26l.28.28Z"></path><path class="cls-1" d="M28.26,81.04l2.27,1.76-.23.28-.4-.31c-.09-.09-.17-.11-.23-.11s-.14.06-.17.11l-2.66,3.4c-.06.09-.09.17-.06.23.03.09.09.17.17.26l.37.26-.23.28-2.24-1.76.2-.26.37.26c.11.09.2.14.28.14s.14-.03.2-.11l2.64-3.37c.06-.09.09-.17.06-.23,0-.09-.06-.17-.14-.23l-.4-.31.2-.28Z"></path><path class="cls-1" d="M29.74,88.81l.54.37-.17.09c.17.11.28.28.31.43.03.17,0,.31-.09.45-.11.17-.28.28-.54.28-.28.03-.6-.09-.96-.31-.17-.09-.34-.23-.51-.37l.17-.28.14.09.23.14c.26.17.45.23.6.26.11,0,.17-.03.23-.11.03-.06.03-.14-.03-.23-.11-.14-.31-.31-.65-.51l.74-.28ZM34.07,85.55h0l.51-.34.23.14-1.08,1.96-.31-.17c.26-.62.34-1.13.26-1.56-.11-.4-.31-.71-.65-.94-.34-.2-.77-.23-1.19-.03-.45.2-.91.68-1.36,1.42-.48.77-.71,1.45-.68,1.98.03.43.26.74.65.99.4.26.82.31,1.3.2.31-.11.65-.34.99-.71l.28.17c-.4.51-.85.79-1.39.91s-1.08,0-1.56-.31c-.65-.4-1.08-.96-1.22-1.7-.17-.71-.03-1.45.43-2.15.48-.79,1.13-1.28,1.93-1.45.68-.14,1.3-.03,1.87.34.26.14.43.28.6.48.14.2.28.45.4.77h0Z"></path><path class="cls-1" d="M37.59,86.6l-.09,5.41c0,.17.03.28.06.34.06.09.14.14.23.2l.2.09-.14.31-2.41-1.05.14-.31.23.09c.2.09.31.11.4.11.09-.03.14-.06.17-.11.03-.06.03-.11.03-.2l.03-1.11-1.9-.85-.4.34c-.14.17-.23.28-.28.37-.06.14-.06.28.03.43.06.14.2.26.37.34l.17.09-.14.31-1.93-.85.14-.31.11.03c.11.06.23.09.37.03.17-.03.34-.14.51-.28l3.74-3.57.37.17ZM36.48,87.65h0l-1.67,1.59,1.62.71.06-2.3ZM39.12,85.66h0l.09.03c-.14.28-.31.45-.54.57-.23.09-.43.09-.62,0-.09-.03-.17-.09-.23-.14-.09-.06-.26-.2-.51-.43-.11-.11-.2-.2-.28-.23-.2-.09-.37-.06-.54.14l-.09-.06c.17-.28.34-.45.57-.54.2-.09.43-.09.62,0,.11.06.28.2.54.43.23.2.37.31.45.37.2.09.4.03.54-.14h0Z"></path><path class="cls-1" d="M42.41,88.3c.51.14.94.37,1.3.74.34.37.6.79.71,1.28.11.48.11.99-.03,1.53-.23.82-.68,1.42-1.36,1.81-.65.37-1.39.45-2.18.26-.51-.14-.94-.4-1.28-.77-.34-.34-.57-.77-.71-1.25-.11-.48-.11-.99.06-1.53.23-.82.65-1.42,1.33-1.81.65-.4,1.39-.48,2.15-.26h0ZM42.32,88.64h0c-.28-.09-.57-.06-.82.03-.26.11-.48.31-.71.65-.23.31-.43.77-.6,1.39-.17.65-.26,1.16-.23,1.5.03.37.14.68.31.88.17.23.4.37.71.45.43.14.82.03,1.19-.26.34-.31.65-.91.91-1.84.17-.65.26-1.13.23-1.5,0-.34-.11-.62-.28-.85-.17-.23-.43-.37-.71-.45h0Z"></path><path class="cls-1" d="M46.89,89.46l4.82.37-.03,1.96-.31-.03c-.06-.48-.14-.79-.23-1.02-.11-.2-.26-.37-.43-.48-.17-.11-.43-.2-.74-.2l-.77-.06c-.11-.03-.2,0-.26.06-.06.03-.09.09-.09.17l-.14,1.93.26.03c.31.03.54-.06.71-.2.17-.17.31-.43.37-.82l.31.03-.17,2.58h-.34c0-.45-.06-.77-.23-.94-.14-.2-.4-.28-.71-.31l-.23-.03-.14,2.07c-.03.09,0,.14.06.2.09.06.2.09.34.09l.68.06c.45.03.82-.09,1.13-.34.31-.28.54-.71.65-1.3l.34.03-.26,2.1-5.05-.37.03-.34.51.03c.11.03.2,0,.26-.06s.11-.14.11-.23l.31-4.28c0-.09-.03-.17-.09-.2-.06-.06-.14-.09-.31-.09l-.43-.03.03-.37Z"></path><path class="cls-1" d="M59.05,94.42c.23.45.4.74.54.91.11.09.2.14.28.11.09,0,.17-.06.2-.11.03-.09.06-.23.03-.43l.34-.06c.06.43-.03.74-.2,1.02-.2.26-.45.4-.77.45-.31.03-.6-.06-.79-.23-.23-.2-.4-.57-.51-1.11-.11.03-.23.06-.34.09-.11.03-.26.06-.37.09-.79.09-1.47-.11-2.07-.6-.62-.48-.96-1.13-1.08-1.98-.09-.82.09-1.56.57-2.15.45-.62,1.11-.96,1.9-1.05.79-.11,1.5.09,2.1.57.62.48.96,1.13,1.05,1.93.09.51.03.96-.11,1.36-.14.43-.4.82-.77,1.19h0ZM58.59,93.57h0c.09-.45.09-.99,0-1.59-.06-.6-.2-1.08-.37-1.39-.17-.34-.37-.57-.6-.71-.26-.14-.51-.2-.82-.14-.28.03-.51.14-.74.34-.2.2-.34.45-.4.77-.09.45-.09.99-.03,1.59.11.77.28,1.33.54,1.73-.03-.34.03-.65.23-.88.2-.23.48-.34.85-.4.26-.03.51,0,.74.11.23.11.43.31.6.57h0ZM58.11,94.48h0l-.03-.2c-.03-.37-.14-.62-.31-.79-.17-.17-.37-.26-.6-.23-.2.03-.34.11-.48.28-.11.17-.17.37-.14.6.03.2.11.4.26.57.23.09.43.09.62.09.14-.03.26-.06.37-.11.11-.06.23-.11.31-.2h0Z"></path><path class="cls-1" d="M59.44,89.21l2.69-.74.09.34-.54.14c-.09.03-.14.09-.17.14s-.03.14,0,.26l.82,2.98c.11.4.31.71.6.85.28.17.62.2,1.02.09.28-.06.54-.2.74-.4.14-.14.26-.31.28-.57.06-.23.06-.51-.03-.85l-.65-2.27c-.06-.28-.2-.48-.37-.6-.17-.11-.37-.14-.57-.09l-.09.03-.09-.34,2.04-.57.09.34-.14.03c-.2.06-.34.2-.43.4-.06.17-.06.4,0,.62l.68,2.49c.17.54.09,1.02-.17,1.47-.28.43-.74.74-1.39.91-.48.14-.88.17-1.28.11-.4-.06-.68-.17-.88-.37-.23-.2-.37-.51-.48-.91l-.85-3c-.03-.14-.09-.23-.14-.28-.09-.03-.17-.03-.31,0l-.4.11-.09-.34Z"></path><path class="cls-1" d="M67.46,86.43l3.91,3.74c.11.11.2.17.28.2.09,0,.2,0,.28-.06l.2-.09.14.34-2.41,1.05-.14-.34.23-.09c.17-.09.28-.14.34-.23.06-.06.06-.14.03-.2,0-.06-.06-.09-.11-.14l-.79-.79-1.93.85.03.51c0,.2,0,.37.06.45.06.14.17.23.31.28.14.06.31.03.51-.06l.17-.09.14.34-1.93.85-.14-.34.09-.03c.14-.06.23-.14.28-.28.09-.17.14-.34.14-.54l-.09-5.19.4-.17ZM67.46,87.96h0l.03,2.32,1.62-.71-1.64-1.62Z"></path><path class="cls-1" d="M69.82,85.92l-.2-.28,2.44-1.5.2.31-.43.26c-.11.06-.17.14-.2.23-.03.06,0,.14.06.26l2.15,3.54c.09.14.17.23.23.23.09.03.2-.03.37-.14l.68-.4c.26-.17.43-.43.48-.82.09-.37.03-.85-.17-1.45l.28-.2.99,1.9-4.2,2.55-.17-.31.43-.26c.09-.06.14-.11.14-.2.03-.06,0-.14-.03-.23l-2.21-3.66c-.06-.09-.14-.11-.2-.14-.09,0-.17.03-.28.09l-.37.23Z"></path><path class="cls-1" d="M73.81,83.03l2.3-1.76.2.28-.4.31c-.11.09-.14.14-.17.2,0,.09,0,.14.06.2l2.61,3.46c.09.06.14.11.2.11.09,0,.2-.03.28-.11l.37-.28.23.28-2.3,1.73-.2-.28.34-.26c.11-.09.2-.17.23-.26,0-.09,0-.17-.09-.23l-2.58-3.4c-.06-.09-.11-.14-.2-.14s-.17.03-.26.11l-.4.28-.23-.26Z"></path><path class="cls-1" d="M76.11,81.38l2.15-2.07c.4-.37.82-.62,1.28-.74.45-.11.94-.11,1.39.03.48.14.88.43,1.25.79.4.43.65.82.79,1.28.11.45.11.91-.03,1.39-.14.45-.37.85-.74,1.19l-2.24,2.15-.26-.26.34-.31c.09-.09.14-.17.14-.26-.03-.09-.06-.17-.14-.23l-2.89-3.03c-.09-.09-.17-.14-.23-.11-.09,0-.17.06-.28.14l-.31.28-.23-.26ZM81.69,83.25h0c.26-.23.43-.51.48-.82.09-.31.06-.6-.06-.91-.14-.28-.43-.68-.85-1.13-.45-.48-.85-.79-1.22-.96-.34-.14-.65-.2-.91-.14-.28.06-.6.26-.94.57-.17.17-.28.31-.28.37-.03.09,0,.17.09.26l2.92,3.03c.09.09.17.14.26.14.06,0,.14-.03.23-.11l.28-.28Z"></path><path class="cls-1" d="M81.84,75.15l5.22,1.45c.14.03.26.03.34.03.09-.03.17-.09.23-.2l.14-.14.28.2-1.62,2.07-.28-.23.14-.17c.14-.17.2-.28.2-.37.03-.09,0-.14-.06-.2-.06-.03-.11-.06-.17-.09l-1.08-.28-1.3,1.64.26.45c.11.17.2.31.26.37.14.09.28.11.43.09.17-.03.31-.11.43-.28l.11-.14.28.2-1.3,1.67-.28-.2.09-.11c.09-.09.11-.23.11-.34,0-.2-.06-.4-.14-.57l-2.52-4.51.26-.34ZM82.57,76.51h0l1.11,2.01,1.11-1.42-2.21-.6Z"></path><path class="cls-1" d="M83.34,73.5l1.5-2.61c.26-.48.6-.82,1.02-1.08.4-.23.85-.34,1.33-.34s.96.14,1.42.43c.48.26.85.6,1.11.99.26.4.37.82.37,1.33,0,.48-.11.94-.37,1.36l-1.53,2.69-.31-.17.23-.4c.06-.11.06-.2.06-.28-.03-.09-.09-.14-.2-.2l-3.63-2.1c-.11-.06-.2-.06-.26-.06-.09.03-.14.11-.23.23l-.2.37-.31-.17ZM89.23,73.73h0c.17-.31.26-.6.23-.94-.03-.31-.11-.6-.31-.85-.23-.26-.6-.54-1.13-.85-.57-.31-1.05-.51-1.42-.57-.4-.06-.71-.03-.94.11-.26.14-.51.4-.74.79-.11.23-.17.37-.17.45,0,.06.06.14.14.2l3.66,2.1c.11.06.2.09.28.06.09,0,.14-.06.2-.17l.2-.34Z"></path><path class="cls-1" d="M86.14,68.63l1.79-4.51,1.84.62-.11.31c-.45-.09-.79-.14-1.02-.09-.26.03-.45.11-.6.26-.17.14-.31.34-.43.62l-.28.71c-.03.11-.06.2-.03.28.03.06.09.11.14.14l1.81.71.09-.26c.11-.26.11-.51.03-.74-.11-.2-.31-.4-.68-.57l.14-.31,2.41.96-.11.31c-.43-.14-.74-.17-.96-.09-.23.09-.4.28-.51.6l-.09.2,1.9.77c.09.03.17.03.23,0,.09-.06.14-.14.2-.28l.26-.62c.17-.43.17-.82,0-1.22-.17-.37-.51-.71-1.05-.99l.14-.31,1.93.85-1.87,4.71-.31-.11.17-.48c.06-.11.06-.2.03-.26-.03-.09-.09-.14-.2-.17l-3.97-1.59c-.09-.06-.17-.03-.23,0-.06.03-.11.14-.17.28l-.17.4-.31-.14Z"></path><path class="cls-2" d="M39.8,77.33c.43-.31.82-.57,1.19-.82.34-.26.65-.51.94-.74.26-.23.48-.43.68-.65.2-.2.34-.43.48-.62.11-.23.2-.45.26-.68s.09-.48.09-.74c0-.34-.03-.6-.11-.79-.06-.2-.14-.34-.28-.45-.11-.11-.23-.17-.4-.2-.14-.06-.28-.06-.43-.06-.26,0-.48.03-.71.09-.2.09-.4.2-.57.34.11.11.2.23.26.34.06.14.09.26.09.4,0,.17-.06.31-.17.43-.11.11-.26.17-.48.17-.09,0-.17,0-.26-.03-.09-.03-.14-.09-.23-.14-.06-.06-.09-.11-.14-.2-.03-.09-.03-.17-.03-.28,0-.2.06-.4.14-.57.11-.2.28-.37.48-.51.23-.14.45-.26.77-.34.28-.09.6-.14.96-.14.34,0,.68.06.94.14.28.09.54.2.71.37.2.17.34.37.45.6.11.23.17.48.17.77,0,.26-.06.48-.11.71-.09.23-.2.43-.31.65-.14.2-.28.4-.45.57-.2.2-.37.37-.6.54-.2.2-.4.37-.62.51-.23.17-.45.34-.68.51l-.51.34.03.03h1.81c.26,0,.45,0,.62-.03.14-.03.26-.09.34-.17.09-.09.14-.2.2-.37.06-.14.09-.37.14-.62h.43l-.11,2.07h-4.96v-.4ZM48.95,77.87c-.45,0-.82-.06-1.16-.23-.34-.14-.62-.37-.85-.65-.23-.28-.4-.65-.54-1.05-.11-.4-.17-.88-.17-1.39s.06-.99.2-1.42c.14-.43.31-.79.57-1.08.26-.28.54-.54.88-.68.37-.17.74-.26,1.19-.26.43,0,.79.09,1.13.26.34.14.62.37.85.65.23.28.4.62.51,1.05.14.4.2.85.2,1.36s-.06.96-.2,1.39c-.11.43-.28.77-.51,1.08-.26.31-.54.54-.88.71-.37.17-.77.26-1.22.26h0ZM48.98,77.44c.14,0,.31,0,.45-.06.14-.03.28-.09.4-.17.11-.06.23-.17.31-.31.11-.14.2-.34.26-.57.06-.2.11-.48.14-.79.03-.28.06-.65.06-1.08,0-.6-.03-1.11-.11-1.47-.06-.37-.17-.68-.31-.88-.14-.23-.31-.37-.51-.43-.17-.09-.4-.11-.65-.11-.23,0-.45.03-.65.11-.23.06-.4.23-.54.43-.14.23-.26.51-.31.91-.09.4-.11.91-.11,1.5,0,.43,0,.77.03,1.08.06.28.09.57.14.77.09.23.14.4.26.54.09.14.2.26.31.31.11.09.23.14.37.17.14.06.31.06.48.06h0ZM52.87,77.33c.45-.31.85-.57,1.19-.82s.65-.51.94-.74c.26-.23.51-.43.68-.65.2-.2.37-.43.48-.62.11-.23.2-.45.28-.68.06-.23.09-.48.09-.74,0-.34-.06-.6-.11-.79-.09-.2-.17-.34-.28-.45-.11-.11-.26-.17-.4-.2-.17-.06-.31-.06-.45-.06-.26,0-.48.03-.68.09-.23.09-.43.2-.57.34.09.11.17.23.23.34.06.14.09.26.09.4,0,.17-.06.31-.17.43-.11.11-.26.17-.48.17-.09,0-.17,0-.26-.03-.09-.03-.14-.09-.2-.14s-.11-.11-.14-.2c-.06-.09-.06-.17-.06-.28,0-.2.06-.4.17-.57.11-.2.26-.37.48-.51.2-.14.45-.26.74-.34.28-.09.62-.14.96-.14.37,0,.68.06.96.14.28.09.51.2.71.37.2.17.34.37.43.6.11.23.17.48.17.77,0,.26-.06.48-.11.71-.09.23-.17.43-.31.65-.11.2-.28.4-.45.57-.17.2-.37.37-.57.54-.2.2-.43.37-.65.51-.23.17-.45.34-.68.51l-.48.34v.03h1.84c.26,0,.45,0,.6-.03.14-.03.26-.09.34-.17.09-.09.17-.2.2-.37.06-.14.09-.37.14-.62h.43l-.11,2.07h-4.96v-.4ZM59.13,76.48l3.94-5.27h.51v5.02h1.28l-.03.74h-1.25v1.73h-1.05v-1.73h-3.4v-.48ZM62.53,72.74l-2.61,3.49h2.61v-3.49h0Z"></path><path class="cls-2" d="M33.65,46.63c.48-.68,1.02-1.22,1.59-1.64.57-.4,1.16-.71,1.79-.96.6-.23,1.19-.37,1.76-.45.6-.09,1.11-.11,1.59-.11,1.36,0,2.61.23,3.8.74,1.16.48,2.18,1.19,3.06,2.07.88.88,1.56,1.93,2.07,3.15.48,1.22.74,2.55.74,4,0,1.36-.23,2.69-.68,4-.43,1.3-1.11,2.44-1.98,3.46-.88.99-1.98,1.81-3.32,2.41-1.3.62-2.83.94-4.56.94-1.45,0-2.81-.26-4.11-.74s-2.44-1.3-3.43-2.41c-.96-1.13-1.76-2.61-2.32-4.45-.57-1.81-.85-4.08-.85-6.75,0-1.7.11-3.34.34-4.99.26-1.64.6-3.17,1.08-4.65s1.08-2.81,1.81-4.05c.71-1.25,1.53-2.32,2.49-3.23s2.04-1.62,3.23-2.13c1.19-.51,2.52-.77,3.97-.77.94,0,1.87.11,2.78.34.88.26,1.67.57,2.35,1.02.71.4,1.25.94,1.64,1.53.43.6.62,1.28.62,2.01,0,.48-.09.88-.23,1.22-.17.31-.37.57-.62.79-.23.2-.51.34-.82.45-.31.09-.62.11-.91.11-.74,0-1.33-.23-1.79-.68-.45-.45-.68-.99-.68-1.67,0-.4.09-.82.28-1.28.2-.45.51-.88.91-1.28-.26-.2-.54-.34-.85-.45-.31-.11-.62-.2-.94-.26-.31-.06-.62-.11-.91-.11-.31-.03-.54-.03-.77-.03-.62,0-1.25.06-1.87.2-.62.11-1.22.37-1.79.77-.6.37-1.13.91-1.64,1.59-.51.68-.96,1.56-1.36,2.66s-.74,2.44-1.02,4c-.28,1.59-.48,3.43-.57,5.61l.11.03ZM39.74,62.45c.85,0,1.62-.14,2.32-.43.68-.28,1.25-.77,1.73-1.47.48-.68.85-1.59,1.13-2.72.26-1.16.37-2.58.37-4.31,0-1.59-.11-2.92-.34-4-.26-1.08-.6-1.93-1.05-2.58-.45-.65-.99-1.11-1.67-1.36-.65-.28-1.39-.4-2.24-.4s-1.7.14-2.49.4c-.77.28-1.45.74-2.01,1.42-.57.65-1.02,1.53-1.36,2.64-.34,1.11-.51,2.49-.51,4.14,0,1.02.09,2.04.26,3.06.17,1.02.48,1.96.91,2.81.45.82,1.08,1.5,1.87,2.04.79.51,1.81.77,3.09.77h0Z"></path><path class="cls-2" d="M54.79,46.18c-.6,0-1.16-.09-1.73-.31l.91-15.08h16.44l-.23,3.8h-14.46l-.6,9.18.11.06c.96-.45,1.96-.79,2.98-.99,1.02-.23,2.01-.34,2.98-.34,1.62,0,3.09.28,4.48.82,1.36.54,2.55,1.28,3.54,2.21.99.96,1.76,2.1,2.32,3.4.57,1.3.85,2.75.85,4.31,0,1.47-.26,2.86-.77,4.17-.54,1.33-1.3,2.49-2.32,3.49-1.02,1.02-2.3,1.81-3.83,2.41s-3.29.91-5.3.91c-1.62,0-3-.2-4.17-.57-1.16-.4-2.1-.85-2.86-1.42-.74-.6-1.28-1.22-1.64-1.9-.34-.65-.51-1.33-.51-1.96,0-.4.06-.77.2-1.11.11-.37.31-.65.57-.94.23-.26.54-.48.88-.62.34-.17.74-.23,1.19-.23.34,0,.68.06.99.14.31.11.62.28.85.51.26.2.45.48.62.82.14.34.23.74.23,1.19,0,.54-.11,1.05-.34,1.56-.26.48-.62.91-1.11,1.25.37.31.79.57,1.25.74.43.2.88.34,1.3.45.43.11.85.17,1.28.23.4.03.77.06,1.11.06.57,0,1.16-.06,1.79-.14.6-.11,1.19-.28,1.76-.54.57-.26,1.08-.6,1.59-1.02.51-.43.94-.96,1.33-1.62.37-.65.65-1.42.88-2.32.2-.91.31-1.96.31-3.15,0-1.73-.23-3.15-.65-4.31-.45-1.16-1.05-2.07-1.76-2.75-.71-.71-1.53-1.19-2.47-1.47-.91-.28-1.84-.45-2.81-.45-1.05,0-2.01.14-2.89.43-.88.28-1.64.65-2.3,1.11h0Z"></path><rect class="cls-1" x="60.32" y="49.46" width="18.71" height="9.55"></rect><path class="cls-2" d="M63.04,56.35c-.14,0-.23-.03-.31-.11-.06-.09-.09-.23-.09-.43v-2.55c0-.4-.09-.71-.26-.96-.17-.26-.37-.45-.65-.54-.4-.17-.85-.26-1.39-.26-.71,0-1.28.17-1.76.48-.37.28-.57.57-.57.94,0,.2.09.37.23.51.14.14.31.2.57.2.23,0,.4-.06.54-.17.11-.14.2-.28.2-.51,0-.14-.06-.31-.17-.45-.03-.09-.06-.14-.06-.17,0-.06.06-.14.17-.2.2-.11.43-.17.65-.17.31,0,.57.09.77.28.2.17.28.4.28.71v.71c-1.42.26-2.32.51-2.75.77-.54.34-.79.77-.79,1.3,0,.37.14.68.43.91.28.23.68.34,1.19.34.37,0,.68-.06.99-.2.28-.14.62-.37.96-.74.17.37.34.6.54.74.17.14.43.2.74.2.2,0,.4-.03.57-.09.2-.06.37-.17.6-.31l-.23-.4c-.17.11-.31.17-.4.17h0ZM61.2,54.82h0c0,.45-.11.79-.34,1.05-.23.26-.54.37-.88.37-.26,0-.43-.06-.54-.2-.14-.11-.2-.31-.2-.57,0-.37.14-.65.4-.85.28-.23.79-.4,1.56-.48v.68ZM69.9,56.21h0c-.09-.09-.11-.23-.11-.4v-2.32c0-.6-.14-1.08-.43-1.42-.31-.31-.71-.48-1.19-.48-.37,0-.74.09-1.05.28-.34.2-.65.51-.94.91-.06-.43-.11-.79-.17-1.11l-2.13.11v.45h.23c.2,0,.34.06.45.17.11.09.17.23.17.4v3c0,.17-.03.28-.11.37-.09.09-.2.14-.37.14h-.4v.48h3.15v-.48h-.37c-.14,0-.26-.06-.34-.14-.09-.09-.11-.2-.11-.37v-1.7c0-.54.11-.94.34-1.22s.54-.43.91-.43c.28,0,.51.09.68.31.17.2.26.48.26.85v2.18c0,.17-.06.28-.14.37-.06.09-.2.14-.37.14h-.31v.48h3.03v-.48h-.28c-.17,0-.31-.06-.4-.11h0ZM75.17,51.87h0c-.45-.26-.96-.37-1.53-.37-.82,0-1.5.26-2.07.79-.54.51-.79,1.16-.79,1.96,0,.51.11.96.34,1.39.26.4.6.74,1.05.96.45.26.94.37,1.47.37.77,0,1.45-.23,2.04-.71s.91-1.13.91-2.04c0-.54-.11-1.02-.34-1.42-.26-.37-.6-.71-1.08-.94h0ZM74.58,55.98h0c-.23.34-.54.51-.91.51-.4,0-.68-.17-.91-.48-.2-.34-.31-.94-.31-1.79s.11-1.39.31-1.73c.23-.31.54-.48.91-.48s.68.17.91.48c.23.34.34.94.34,1.76s-.11,1.42-.34,1.73h0ZM81.41,54.37h0c-.2-.28-.48-.51-.82-.62-.17-.09-.54-.17-1.11-.28-.62-.14-.99-.26-1.11-.34-.14-.11-.23-.26-.23-.45s.09-.37.28-.48c.17-.14.43-.2.77-.2.4,0,.71.09.99.28.28.17.54.51.77.96h.43l-.11-1.73h-.31l-.37.43c-.23-.17-.45-.28-.68-.34-.23-.06-.45-.09-.74-.09-.57,0-1.02.14-1.33.48-.34.31-.51.74-.51,1.22,0,.37.09.65.28.91.17.26.45.45.79.6.23.09.62.17,1.22.31.54.11.85.2.99.31.11.09.2.23.2.43s-.11.37-.31.51c-.2.14-.48.23-.88.23-.91,0-1.59-.48-1.96-1.45h-.45l.11,1.9h.4l.4-.45c.26.2.51.31.74.37.23.09.51.11.79.11.62,0,1.11-.17,1.47-.48.37-.31.57-.71.57-1.16,0-.37-.09-.71-.28-.96h0Z"></path></svg>